<?xml version="1.0" encoding="UTF-8" standalone="no"?>
<svg xmlns:dc="http://purl.org/dc/elements/1.1/" xmlns:cc="http://creativecommons.org/ns#" xmlns:rdf="http://www.w3.org/1999/02/22-rdf-syntax-ns#" xmlns:svg="http://www.w3.org/2000/svg" xmlns="http://www.w3.org/2000/svg" xmlns:sodipodi="http://sodipodi.sourceforge.net/DTD/sodipodi-0.dtd" xmlns:inkscape="http://www.inkscape.org/namespaces/inkscape" width="48" height="48" viewBox="0 0 48 48" id="svg5742" version="1.1" inkscape:version="0.91 r" sodipodi:docname="Animal-dog-foot-pet.svg">
  <defs id="defs5744"/>
  <sodipodi:namedview id="base" pagecolor="#ffffff" bordercolor="#666666" borderopacity="1.0" inkscape:pageopacity="0.0" inkscape:pageshadow="2" inkscape:zoom="8.9419543" inkscape:cx="30.956004" inkscape:cy="25.29382" inkscape:document-units="px" inkscape:current-layer="layer1" showgrid="true" units="px" inkscape:window-width="1309" inkscape:window-height="744" inkscape:window-x="57" inkscape:window-y="24" inkscape:window-maximized="1" showguides="true" inkscape:guide-bbox="true">
    <inkscape:grid type="xygrid" id="grid4204" empspacing="4"/>
  </sodipodi:namedview>
  
  <g inkscape:label="Layer 1" inkscape:groupmode="layer" id="layer1" transform="translate(0,-1004.3622)">
    <path style="color:#000000;font-style:normal;font-variant:normal;font-weight:normal;font-stretch:normal;font-size:medium;line-height:normal;font-family:sans-serif;text-indent:0;text-align:start;text-decoration:none;text-decoration-line:none;text-decoration-style:solid;text-decoration-color:#000000;letter-spacing:normal;word-spacing:normal;text-transform:none;direction:ltr;block-progression:tb;writing-mode:lr-tb;baseline-shift:baseline;text-anchor:start;white-space:normal;clip-rule:nonzero;display:inline;overflow:visible;visibility:visible;opacity:1;isolation:auto;mix-blend-mode:normal;color-interpolation:sRGB;color-interpolation-filters:linearRGB;solid-color:#000000;solid-opacity:1;fill:#000000;fill-opacity:1;fill-rule:nonzero;stroke:none;stroke-width:1;stroke-linecap:round;stroke-linejoin:round;stroke-miterlimit:4;stroke-dasharray:none;stroke-dashoffset:0;stroke-opacity:1;color-rendering:auto;image-rendering:auto;shape-rendering:auto;text-rendering:auto;enable-background:accumulate" d="M 18.714844 6.2558594 C 17.607919 6.2558594 16.632058 6.9012687 15.964844 7.8554688 C 15.29763 8.8096688 14.90625 10.087081 14.90625 11.488281 C 14.90625 12.889481 15.29763 14.166894 15.964844 15.121094 C 16.632058 16.075294 17.607919 16.720703 18.714844 16.720703 C 19.821768 16.720703 20.79763 16.075294 21.464844 15.121094 C 22.132058 14.166894 22.523438 12.889481 22.523438 11.488281 C 22.523438 10.087081 22.132058 8.8096688 21.464844 7.8554688 C 20.79763 6.9012687 19.821768 6.2558594 18.714844 6.2558594 z M 29.285156 6.2558594 C 28.178232 6.2558594 27.20237 6.9012687 26.535156 7.8554688 C 25.867942 8.8096688 25.476562 10.087081 25.476562 11.488281 C 25.476562 12.889481 25.867942 14.166894 26.535156 15.121094 C 27.20237 16.075294 28.178232 16.720703 29.285156 16.720703 C 30.392081 16.720703 31.367942 16.075294 32.035156 15.121094 C 32.70237 14.166894 33.09375 12.889481 33.09375 11.488281 C 33.09375 10.087081 32.70237 8.8096688 32.035156 7.8554688 C 31.367942 6.9012687 30.392081 6.2558594 29.285156 6.2558594 z M 18.714844 7.2558594 C 19.435312 7.2558594 20.1142 7.6692344 20.644531 8.4277344 C 21.174863 9.1861344 21.523437 10.276081 21.523438 11.488281 C 21.523438 12.700581 21.174863 13.788375 20.644531 14.546875 C 20.1142 15.305375 19.435312 15.720703 18.714844 15.720703 C 17.994375 15.720703 17.315488 15.305375 16.785156 14.546875 C 16.254825 13.788375 15.90625 12.700581 15.90625 11.488281 C 15.90625 10.276081 16.254825 9.1861344 16.785156 8.4277344 C 17.315488 7.6692344 17.994375 7.2558594 18.714844 7.2558594 z M 29.285156 7.2558594 C 30.005625 7.2558594 30.684512 7.6692344 31.214844 8.4277344 C 31.745175 9.1861344 32.09375 10.276081 32.09375 11.488281 C 32.09375 12.700581 31.745175 13.788375 31.214844 14.546875 C 30.684512 15.305375 30.005625 15.720703 29.285156 15.720703 C 28.564688 15.720703 27.8858 15.305375 27.355469 14.546875 C 26.825137 13.788375 26.476562 12.700581 26.476562 11.488281 C 26.476563 10.276081 26.825137 9.1861344 27.355469 8.4277344 C 27.8858 7.6692344 28.564688 7.2558594 29.285156 7.2558594 z M 10.808594 14.158203 C 9.701669 14.158203 8.7258077 14.803612 8.0585938 15.757812 C 7.3913798 16.712112 7 17.989425 7 19.390625 C 7 20.791825 7.3913797 22.069137 8.0585938 23.023438 C 8.7258077 23.977637 9.7016689 24.623047 10.808594 24.623047 C 11.915518 24.623047 12.89138 23.977637 13.558594 23.023438 C 14.225808 22.069137 14.617187 20.791825 14.617188 19.390625 C 14.617188 17.989425 14.225808 16.712112 13.558594 15.757812 C 12.89138 14.803612 11.915518 14.158203 10.808594 14.158203 z M 37.191406 14.158203 C 36.084482 14.158203 35.10862 14.803612 34.441406 15.757812 C 33.774192 16.712112 33.382812 17.989425 33.382812 19.390625 C 33.382812 20.791825 33.774192 22.069137 34.441406 23.023438 C 35.10862 23.977637 36.084482 24.623047 37.191406 24.623047 C 38.298331 24.623047 39.274192 23.977637 39.941406 23.023438 C 40.60862 22.069137 41 20.791825 41 19.390625 C 41 17.989425 40.60862 16.712112 39.941406 15.757812 C 39.274192 14.803612 38.298331 14.158203 37.191406 14.158203 z M 10.808594 15.158203 C 11.529062 15.158203 12.20795 15.573531 12.738281 16.332031 C 13.268613 17.090431 13.617187 18.178325 13.617188 19.390625 C 13.617188 20.602825 13.268613 21.692672 12.738281 22.451172 C 12.20795 23.209672 11.529062 23.623047 10.808594 23.623047 C 10.088125 23.623047 9.4092379 23.209672 8.8789062 22.451172 C 8.3485748 21.692672 8 20.602825 8 19.390625 C 8 18.178325 8.3485748 17.090431 8.8789062 16.332031 C 9.4092379 15.573531 10.088125 15.158203 10.808594 15.158203 z M 37.191406 15.158203 C 37.911875 15.158203 38.590762 15.573531 39.121094 16.332031 C 39.651425 17.090431 40 18.178325 40 19.390625 C 40 20.602825 39.651425 21.692672 39.121094 22.451172 C 38.590762 23.209672 37.911875 23.623047 37.191406 23.623047 C 36.470938 23.623047 35.79205 23.209672 35.261719 22.451172 C 34.731387 21.692672 34.382812 20.602825 34.382812 19.390625 C 34.382812 18.178325 34.731387 17.090431 35.261719 16.332031 C 35.79205 15.573531 36.470938 15.158203 37.191406 15.158203 z M 24 18.355469 C 20.763835 18.355469 17.938479 20.039634 16.523438 22.552734 C 16.051129 23.379234 15.686261 24.728291 15.080078 25.525391 C 14.420631 26.391891 13.595707 27.073303 12.695312 27.595703 A 0.50005 0.50005 0 0 0 12.679688 27.605469 C 10.447967 29.013069 9.0076963 31.371553 9.0058594 34.001953 C 9.0058637 38.297753 12.79819 41.746094 17.412109 41.746094 C 18.622831 41.745194 19.801239 41.502622 20.900391 41.044922 C 21.865244 40.644322 22.902241 40.427734 24 40.427734 C 25.093212 40.427734 26.127428 40.644762 27.085938 41.041016 C 27.085938 41.041016 27.087891 41.041016 27.087891 41.041016 C 28.188387 41.501657 29.371087 41.747147 30.587891 41.748047 C 35.20181 41.748047 38.994136 38.299706 38.994141 34.003906 C 38.990841 31.369006 37.545013 29.008569 35.3125 27.605469 A 0.50005 0.50005 0 0 0 35.296875 27.595703 C 34.403961 27.076203 33.579369 26.393844 32.919922 25.527344 C 32.620751 25.133944 32.31988 24.511753 32.076172 23.939453 C 31.834583 23.372153 31.676332 22.898912 31.484375 22.570312 L 31.482422 22.570312 C 30.076885 20.050212 27.245792 18.355469 24 18.355469 z M 24 19.355469 C 26.89834 19.355469 29.392343 20.870688 30.611328 23.054688 A 0.50005 0.50005 0 0 0 30.617188 23.066406 C 30.674457 23.163406 30.901276 23.731278 31.15625 24.330078 C 31.411224 24.928878 31.720343 25.601259 32.123047 26.130859 A 0.50005 0.50005 0 0 0 32.125 26.130859 C 32.874757 27.115959 33.804498 27.880831 34.794922 28.457031 C 36.756899 29.696901 37.991342 31.735351 37.994141 34 C 37.994137 37.706 34.706627 40.744141 30.587891 40.744141 C 29.503349 40.743341 28.454193 40.526334 27.472656 40.115234 A 0.50005 0.50005 0 0 0 27.46875 40.115234 C 26.392517 39.670034 25.225394 39.425781 24 39.425781 C 22.770255 39.425781 21.597704 39.671694 20.515625 40.121094 C 19.535021 40.529394 18.490664 40.743341 17.412109 40.744141 C 13.293373 40.744141 10.005863 37.706 10.005859 34 C 10.007455 31.739232 11.234856 29.7035 13.197266 28.458984 L 13.212891 28.449219 C 14.204846 27.871311 15.129202 27.108804 15.875 26.128906 A 0.50005 0.50005 0 0 0 15.876953 26.128906 C 16.67452 25.080006 17.072968 23.606175 17.392578 23.046875 C 18.621113 20.862175 21.109745 19.355469 24 19.355469 z " transform="translate(0,1004.3622)" id="path4536"/>
  </g>

	<metadata>
		<rdf:RDF xmlns:rdf="http://www.w3.org/1999/02/22-rdf-syntax-ns#" xmlns:rdfs="http://www.w3.org/2000/01/rdf-schema#" xmlns:dc="http://purl.org/dc/elements/1.1/">
			<rdf:Description about="https://iconscout.com/legal#licenses" dc:title="Animal-dog-foot-pet" dc:description="Animal-dog-foot-pet" dc:publisher="Iconscout" dc:date="2017-03-02" dc:format="image/svg+xml" dc:language="en">
				<dc:creator>
					<rdf:Bag>
						<rdf:li>Devendra Karkar</rdf:li>
					</rdf:Bag>
				</dc:creator>
			</rdf:Description>
		</rdf:RDF>
    </metadata></svg>
